<svg version="1.1" xmlns="http://www.w3.org/2000/svg" xmlns:xlink="http://www.w3.org/1999/xlink" width="16" height="16" viewBox="0,0,256,256"><g fill="#7f858d" fill-rule="nonzero" stroke="none" stroke-width="1" stroke-linecap="butt" stroke-linejoin="miter" stroke-miterlimit="10" stroke-dasharray="" stroke-dashoffset="0" font-family="none" font-weight="none" font-size="none" text-anchor="none" style="mix-blend-mode: normal"><g transform="translate(0.0008,0) scale(16,16)"><path d="M7.33333,7.33333h-7.33333v-5.33333c0,-0.53043 0.21071,-1.03914 0.58579,-1.41421c0.37507,-0.37507 0.88378,-0.58579 1.41421,-0.58579h5.33333zM1.33333,6h4.66667v-4.66667h-4c-0.17681,0 -0.34638,0.07024 -0.4714,0.19527c-0.12503,0.12502 -0.19527,0.29459 -0.19527,0.4714z"></path><path d="M15.9999,7.33333h-7.33334v-7.33333h5.33334c0.5304,0 1.0391,0.21071 1.4142,0.58579c0.3751,0.37507 0.5858,0.88378 0.5858,1.41421zM9.9999,6h4.6667v-4c0,-0.17681 -0.0703,-0.34638 -0.1953,-0.4714c-0.125,-0.12503 -0.2946,-0.19527 -0.4714,-0.19527h-4z"></path><path d="M7.33333,16h-5.33333c-0.53043,0 -1.03914,-0.2107 -1.41421,-0.5858c-0.37507,-0.3751 -0.58579,-0.8838 -0.58579,-1.4142v-5.33334h7.33333zM1.33333,9.99999v4.00001c0,0.1768 0.07024,0.3464 0.19527,0.4714c0.12502,0.125 0.29459,0.1952 0.4714,0.1952h4v-4.66661z"></path><path d="M13.9999,16h-5.33334v-7.33334h7.33334v5.33334c0,0.5304 -0.2107,1.0391 -0.5858,1.4142c-0.3751,0.3751 -0.8838,0.5858 -1.4142,0.5858zM9.9999,14.6666h4c0.1768,0 0.3464,-0.0702 0.4714,-0.1952c0.125,-0.125 0.1953,-0.2946 0.1953,-0.4714v-4.00001h-4.6667z"></path></g></g></svg>